<svg width="106" height="96" viewBox="0 0 106 96" fill="none" xmlns="http://www.w3.org/2000/svg">
<mask id="mask0_27_24" style="mask-type:alpha" maskUnits="userSpaceOnUse" x="35" y="0" width="70" height="70">
<rect x="35" width="70" height="70" fill="#C4C4C4"/>
</mask>
<g mask="url(#mask0_27_24)">
<path d="M54.615 25.79C54.225 26.18 53.835 26.375 53.445 26.375C53.1417 26.375 52.8383 26.2883 52.535 26.115C52.2317 25.9417 51.95 25.7683 51.69 25.595C51.3433 25.1617 51.17 24.7067 51.17 24.23C51.17 23.6233 51.4083 23.125 51.885 22.735C53.7917 21.0883 55.72 19.5283 57.67 18.055C59.6633 16.5817 61.7 15.1733 63.78 13.83C62.2633 13.31 61.115 12.92 60.335 12.66C59.555 12.4 58.9267 12.205 58.45 12.075C58.0167 11.945 57.5833 11.815 57.15 11.685C56.7167 11.555 56.0883 11.3817 55.265 11.165C54.4417 10.905 53.2283 10.5583 51.625 10.125C50.6717 9.82166 50.195 9.23666 50.195 8.37C50.195 7.76333 50.3467 7.265 50.65 6.875C50.9967 6.485 51.4517 6.29 52.015 6.29C52.3183 6.29 52.5567 6.31166 52.73 6.355C53.9 6.745 55.2433 7.17833 56.76 7.655C58.2767 8.08833 59.7933 8.54333 61.31 9.02C62.8267 9.45333 64.1917 9.84333 65.405 10.19C66.6617 10.5367 67.5933 10.8183 68.2 11.035C68.98 10.5583 69.9767 9.97333 71.19 9.28C72.4467 8.54333 73.7683 7.785 75.155 7.005C76.5417 6.225 77.8633 5.48833 79.12 4.795C80.42 4.10166 81.5033 3.53833 82.37 3.105C82.5867 2.93166 82.8683 2.845 83.215 2.845C83.7783 2.845 84.255 3.08333 84.645 3.56C85.0783 4.03666 85.295 4.51333 85.295 4.99C85.295 5.81333 84.9267 6.39833 84.19 6.745C82.7167 7.48166 81.1783 8.28333 79.575 9.15C77.9717 10.0167 75.87 11.2083 73.27 12.725C74.2667 13.0283 75.5667 13.4833 77.17 14.09C78.8167 14.6533 80.485 15.2383 82.175 15.845C83.865 16.4517 85.2733 16.9933 86.4 17.47C86.8767 17.6433 87.2017 17.9033 87.375 18.25C87.5917 18.5533 87.7 18.8783 87.7 19.225C87.7 19.875 87.505 20.395 87.115 20.785C86.725 21.1317 86.2267 21.305 85.62 21.305C85.5333 21.305 85.425 21.305 85.295 21.305C85.165 21.305 85.035 21.2833 84.905 21.24C83.8217 20.7633 82.6083 20.2867 81.265 19.81C79.965 19.3333 78.3183 18.7483 76.325 18.055C74.375 17.3617 71.8617 16.4733 68.785 15.39C66.965 16.56 65.275 17.665 63.715 18.705C62.1983 19.745 60.7033 20.8283 59.23 21.955C57.8 23.0817 56.2617 24.36 54.615 25.79ZM42.785 58.875C42.2217 58.875 41.7233 58.68 41.29 58.29C40.9 57.9 40.705 57.4233 40.705 56.86C40.705 56.6 40.77 56.3183 40.9 56.015C42.8067 52.1583 45.1683 48.3017 47.985 44.445C50.8017 40.545 53.7267 36.8833 56.76 33.46H41.355C40.705 33.46 40.2067 33.2433 39.86 32.81C39.5133 32.3333 39.34 31.8783 39.34 31.445C39.34 30.8383 39.535 30.3617 39.925 30.015C40.315 29.625 40.7917 29.43 41.355 29.43H60.4C61.3967 28.3467 62.3717 27.285 63.325 26.245C64.2783 25.1617 65.275 24.1 66.315 23.06C66.7917 22.5833 67.29 22.345 67.81 22.345C68.33 22.345 68.8067 22.5617 69.24 22.995C69.63 23.4283 69.825 23.9267 69.825 24.49C69.825 25.01 69.63 25.465 69.24 25.855L65.86 29.43H97.775C98.4683 29.43 98.9667 29.6467 99.27 30.08C99.6167 30.5133 99.79 30.9683 99.79 31.445C99.79 31.9217 99.595 32.3767 99.205 32.81C98.8583 33.2433 98.3817 33.46 97.775 33.46H62.155C58.6883 37.3167 55.4167 41.325 52.34 45.485C49.2633 49.6017 46.6633 53.6967 44.54 57.77C44.3233 58.2033 44.0633 58.485 43.76 58.615C43.4567 58.7883 43.1317 58.875 42.785 58.875ZM75.22 65.245C73.8767 65.245 73.205 64.5733 73.205 63.23V44.445C72.425 44.445 71.2983 44.51 69.825 44.64C68.395 44.7267 66.9433 44.835 65.47 44.965C63.9967 45.0517 62.8267 45.16 61.96 45.29H61.83C61.57 45.29 61.3533 45.2033 61.18 45.03C61.1367 45.42 61.0933 45.875 61.05 46.395C61.05 46.8717 61.05 47.3917 61.05 47.955C61.05 49.8183 61.1367 51.8333 61.31 54C61.5267 56.1667 61.7867 57.9433 62.09 59.33C62.2633 59.8067 62.1983 60.2617 61.895 60.695C61.635 61.1717 61.2017 61.4967 60.595 61.67C60.0317 61.7133 59.5117 61.605 59.035 61.345C58.6017 61.085 58.32 60.6733 58.19 60.11C57.8 57.9433 57.4967 55.9933 57.28 54.26C57.1067 52.5267 57.02 50.7717 57.02 48.995C57.02 48.0417 57.0417 47.0667 57.085 46.07C57.1717 45.0733 57.2583 44.0333 57.345 42.95C57.4317 42.3433 57.6483 41.91 57.995 41.65C58.385 41.3467 58.7967 41.195 59.23 41.195C59.88 41.195 60.4 41.39 60.79 41.78C60.8767 41.6933 61.0067 41.6067 61.18 41.52C61.3967 41.39 61.635 41.3033 61.895 41.26C63.455 41.0433 65.2533 40.8483 67.29 40.675C69.37 40.5017 71.3417 40.3933 73.205 40.35V37.75C73.205 37.0133 73.4 36.4933 73.79 36.19C74.2233 35.8867 74.7 35.735 75.22 35.735C75.7833 35.735 76.26 35.9083 76.65 36.255C77.04 36.6017 77.235 37.1 77.235 37.75V40.285C80.615 40.3717 83.54 40.6967 86.01 41.26C88.48 41.78 90.3867 42.755 91.73 44.185C93.0733 45.615 93.745 47.7817 93.745 50.685C93.745 52.1583 93.55 53.7617 93.16 55.495C92.8133 57.2283 92.4017 58.875 91.925 60.435C91.7517 60.9117 91.4917 61.2367 91.145 61.41C90.8417 61.6267 90.5167 61.735 90.17 61.735C89.6067 61.735 89.1083 61.54 88.675 61.15C88.285 60.8033 88.09 60.305 88.09 59.655C88.09 59.395 88.1117 59.1783 88.155 59.005C88.6317 57.6183 89.0217 56.21 89.325 54.78C89.6717 53.3933 89.845 52.0933 89.845 50.88C89.845 48.8433 89.325 47.3917 88.285 46.525C87.245 45.6583 85.7717 45.1167 83.865 44.9C82.0017 44.64 79.7917 44.4883 77.235 44.445V63.23C77.235 63.9233 77.0183 64.4217 76.585 64.725C76.1517 65.0717 75.6967 65.245 75.22 65.245Z" fill="white"/>
</g>
<mask id="mask1_27_24" style="mask-type:alpha" maskUnits="userSpaceOnUse" x="0" y="0" width="70" height="70">
<rect width="70" height="70" fill="#C4C4C4"/>
</mask>
<g mask="url(#mask1_27_24)">
<path d="M23.84 63.425C23.71 63.4683 23.5367 63.49 23.32 63.49C22.93 63.49 22.5617 63.36 22.215 63.1C21.8683 62.84 21.63 62.4717 21.5 61.995C21.2833 60.695 21.7817 59.915 22.995 59.655C23.5583 59.525 24.36 59.33 25.4 59.07C26.44 58.81 27.5017 58.5067 28.585 58.16C29.7117 57.8567 30.6 57.5967 31.25 57.38C29.9933 56.86 29.0617 56.4917 28.455 56.275C27.8483 56.0583 27.4367 55.9067 27.22 55.82C27.0033 55.7333 26.765 55.625 26.505 55.495C25.725 55.105 25.335 54.5633 25.335 53.87C25.335 53.5667 25.4 53.2633 25.53 52.96C25.92 52.18 26.4617 51.79 27.155 51.79C27.4583 51.79 27.7617 51.855 28.065 51.985C28.845 52.3317 29.3867 52.57 29.69 52.7C30.0367 52.83 30.405 52.96 30.795 53.09C31.185 53.22 31.8133 53.4367 32.68 53.74C33.59 54 35.02 54.4767 36.97 55.17C39.7867 54.13 41.845 53.1983 43.145 52.375C44.4883 51.5517 45.16 50.8583 45.16 50.295C45.16 49.4717 44.0117 48.865 41.715 48.475C39.4617 48.085 36.19 47.89 31.9 47.89C30.7733 47.89 29.625 47.9117 28.455 47.955C27.3283 47.9983 26.375 48.0633 25.595 48.15C25.1183 48.15 24.8367 48.1067 24.75 48.02C23.2767 48.9733 21.9333 49.8617 20.72 50.685C19.5067 51.5083 18.315 52.3967 17.145 53.35C16.7117 53.6533 16.3 53.805 15.91 53.805C15.39 53.805 14.8917 53.545 14.415 53.025C14.1117 52.5917 13.96 52.1583 13.96 51.725C13.96 51.1617 14.22 50.685 14.74 50.295C16.95 48.5183 19.2033 46.915 21.5 45.485C23.84 44.0117 26.2667 42.5817 28.78 41.195H20.655C20.135 41.195 19.68 41.0217 19.29 40.675C18.9 40.285 18.705 39.8517 18.705 39.375C18.3583 39.5483 17.99 39.635 17.6 39.635C17.08 39.635 16.6683 39.4617 16.365 39.115C16.0617 38.7683 15.8883 38.3567 15.845 37.88C15.6717 36.2333 15.5417 34.565 15.455 32.875C15.3683 31.1417 15.325 29.43 15.325 27.74C15.325 24.1867 15.52 20.8933 15.91 17.86C15.9533 17.34 16.2133 16.885 16.69 16.495C17.1667 16.105 17.73 15.9967 18.38 16.17C18.7267 15.8233 19.1167 15.6283 19.55 15.585L25.595 14.805C25.6383 14.7183 25.725 14.61 25.855 14.48C25.985 14.3067 26.3533 13.9383 26.96 13.375C27.5667 12.7683 28.5417 11.815 29.885 10.515H8.435C7.785 10.515 7.28667 10.2983 6.94 9.865C6.63667 9.38833 6.485 8.955 6.485 8.565C6.485 8.08833 6.65833 7.655 7.005 7.265C7.395 6.83166 7.87167 6.615 8.435 6.615H60.63C61.2367 6.615 61.7133 6.83166 62.06 7.265C62.4067 7.69833 62.58 8.13166 62.58 8.565C62.58 8.99833 62.4067 9.43167 62.06 9.865C61.7133 10.2983 61.2367 10.515 60.63 10.515H35.345C35.2583 10.6883 35.15 10.84 35.02 10.97C34.9333 11.1 34.6517 11.4033 34.175 11.88C33.6983 12.3133 32.8317 13.1367 31.575 14.35C33.525 14.22 35.3667 14.155 37.1 14.155C41.13 14.155 44.51 14.5883 47.24 15.455C49.97 16.3217 52.0283 17.795 53.415 19.875C54.845 21.9117 55.56 24.7283 55.56 28.325C55.56 29.885 55.43 31.51 55.17 33.2C54.91 34.8467 54.585 36.4933 54.195 38.14C53.9783 39.18 53.415 39.7 52.505 39.7C51.985 39.7 51.4433 39.4833 50.88 39.05C50.9667 39.6133 50.8367 40.1117 50.49 40.545C50.1433 40.9783 49.645 41.195 48.995 41.195H36.84C36.5367 41.4983 36.0167 41.845 35.28 42.235C34.5433 42.5817 33.4817 43.1233 32.095 43.86C34.045 43.8167 36.06 43.9033 38.14 44.12C40.2633 44.2933 42.2133 44.5967 43.99 45.03C45.81 45.4633 47.2617 46.07 48.345 46.85C49.4717 47.5867 50.035 48.5183 50.035 49.645C50.035 50.6417 49.645 51.595 48.865 52.505C48.1283 53.3717 47.175 54.1733 46.005 54.91C44.8783 55.6467 43.7517 56.2967 42.625 56.86C45.0083 57.4667 46.85 57.9433 48.15 58.29C49.4933 58.6367 50.5117 58.8967 51.205 59.07C51.8983 59.2433 52.4833 59.395 52.96 59.525C53.5233 59.6983 53.9133 59.9583 54.13 60.305C54.3467 60.6517 54.455 60.9983 54.455 61.345C54.455 62.0383 54.2383 62.5583 53.805 62.905C53.415 63.2517 52.9817 63.425 52.505 63.425C52.2883 63.425 52.115 63.4033 51.985 63.36C49.125 62.6233 46.7633 61.995 44.9 61.475C43.0367 60.9983 41.4983 60.5867 40.285 60.24C39.115 59.8933 38.0317 59.5683 37.035 59.265C35.3017 59.9583 33.33 60.6517 31.12 61.345C28.91 62.0383 26.4833 62.7317 23.84 63.425ZM50.36 37.815C50.9233 35.4317 51.27 33.4817 51.4 31.965C51.53 30.405 51.595 29.105 51.595 28.065C51.595 25.075 50.9883 22.8867 49.775 21.5C48.605 20.1133 46.785 19.225 44.315 18.835C41.845 18.4017 38.725 18.185 34.955 18.185C32.7017 18.185 30.34 18.2933 27.87 18.51C25.4 18.7267 22.6483 19.0517 19.615 19.485C19.5717 19.7883 19.5283 20.265 19.485 20.915C19.4417 21.565 19.42 21.955 19.42 22.085H42.95C43.6 22.085 44.0767 22.3017 44.38 22.735C44.7267 23.1683 44.9 23.6017 44.9 24.035C44.9 24.5983 44.7267 25.075 44.38 25.465C44.0333 25.8117 43.5567 25.985 42.95 25.985H19.225V29.3H42.95C43.6433 29.3 44.1417 29.5167 44.445 29.95C44.7483 30.34 44.9 30.7733 44.9 31.25C44.9 31.7267 44.7267 32.1817 44.38 32.615C44.0333 33.005 43.5567 33.2 42.95 33.2H19.355C19.355 33.5033 19.3767 34.0233 19.42 34.76C19.5067 35.4533 19.5933 36.3417 19.68 37.425V37.49C19.94 37.36 20.265 37.295 20.655 37.295H48.995C49.5583 37.295 50.0133 37.4683 50.36 37.815Z" fill="white"/>
</g>
<path d="M10.2656 73.9229C10.2656 73.0342 10.2559 72.2188 10.2363 71.4766C10.2266 70.7344 10.2119 70.0898 10.1924 69.543C10.1826 68.9863 10.168 68.5469 10.1484 68.2246C10.1387 67.9023 10.1338 67.7119 10.1338 67.6533C9.93848 67.5166 9.71387 67.4434 9.45996 67.4336C9.21582 67.4238 8.97168 67.4189 8.72754 67.4189C8.38574 67.4189 7.97559 67.502 7.49707 67.668C7.01855 67.8242 6.55469 68.0537 6.10547 68.3564C5.65625 68.6494 5.27539 69.0156 4.96289 69.4551C4.65039 69.8848 4.49414 70.3682 4.49414 70.9053C4.49414 71.2178 4.5332 71.4668 4.61133 71.6523C4.69922 71.8379 4.79688 71.9795 4.9043 72.0771C5.02148 72.165 5.13379 72.2236 5.24121 72.2529C5.3584 72.2725 5.44141 72.2822 5.49023 72.2822C5.73438 72.2822 5.93457 72.2432 6.09082 72.165C6.24707 72.0771 6.38867 71.9893 6.51562 71.9014C6.64258 71.8037 6.75977 71.7158 6.86719 71.6377C6.98438 71.5498 7.11621 71.5059 7.2627 71.5059C7.37988 71.5059 7.50195 71.5352 7.62891 71.5938C7.76562 71.6426 7.8877 71.7256 7.99512 71.8428C8.1123 71.96 8.20996 72.1162 8.28809 72.3115C8.36621 72.4971 8.40527 72.7266 8.40527 73C8.40527 73.3906 8.32715 73.7275 8.1709 74.0107C8.02441 74.2939 7.8291 74.5332 7.58496 74.7285C7.35059 74.9141 7.07715 75.0557 6.76465 75.1533C6.46191 75.2412 6.15918 75.2852 5.85645 75.2852C5.3877 75.2852 4.96289 75.207 4.58203 75.0508C4.21094 74.8848 3.89355 74.6602 3.62988 74.377C3.36621 74.0938 3.16602 73.7617 3.0293 73.3809C2.89258 73 2.82422 72.5947 2.82422 72.165C2.82422 71.1494 3.03418 70.2656 3.4541 69.5137C3.88379 68.752 4.4502 68.1172 5.15332 67.6094C5.86621 67.1016 6.68164 66.7256 7.59961 66.4814C8.52734 66.2275 9.48438 66.1006 10.4707 66.1006C11.3594 66.1006 12.0918 66.1592 12.668 66.2764C13.2441 66.3936 13.7129 66.5498 14.0742 66.7451C14.4355 66.9404 14.7188 67.1748 14.9238 67.4482C15.1289 67.7119 15.3047 67.9902 15.4512 68.2832C16.0469 69.4941 16.623 70.6855 17.1797 71.8574C17.7461 73.0293 18.2881 74.1719 18.8057 75.2852C19.333 76.3984 19.8408 77.4727 20.3291 78.5078C20.8271 79.5332 21.3105 80.5049 21.7793 81.4229V79.3281V74.8018C21.7793 73.9912 21.7988 73.2002 21.8379 72.4287C21.8867 71.6475 21.9795 70.915 22.1162 70.2314C22.2627 69.5381 22.4775 68.9033 22.7607 68.3271C23.0439 67.751 23.4199 67.2529 23.8887 66.833C24.3672 66.4131 24.958 66.0859 25.6611 65.8516C26.3643 65.6172 27.209 65.5 28.1953 65.5C28.6934 65.5 29.1523 65.5391 29.5723 65.6172C29.9922 65.6855 30.3535 65.7881 30.6562 65.9248C30.9688 66.0615 31.2129 66.2324 31.3887 66.4375C31.5645 66.6328 31.6523 66.8525 31.6523 67.0967C31.6523 67.2529 31.6279 67.4189 31.5791 67.5947C31.54 67.7607 31.4766 67.9121 31.3887 68.0488C31.3008 68.1855 31.1885 68.3027 31.0518 68.4004C30.9248 68.4883 30.7734 68.5322 30.5977 68.5322C30.4512 68.5322 30.3145 68.4297 30.1875 68.2246C30.0703 68.0195 29.9189 67.7949 29.7334 67.5508C29.5576 67.2969 29.3184 67.0674 29.0156 66.8623C28.7227 66.6572 28.3223 66.5547 27.8145 66.5547C27.0234 66.5547 26.3643 66.6963 25.8369 66.9795C25.3193 67.2529 24.8994 67.6436 24.5771 68.1514C24.2549 68.6592 24.0156 69.2793 23.8594 70.0117C23.7129 70.7344 23.6201 71.54 23.5811 72.4287C23.5615 73.0439 23.542 73.6445 23.5225 74.2305C23.5127 74.8066 23.5029 75.3926 23.4932 75.9883C23.4932 76.584 23.4932 77.2041 23.4932 77.8486C23.4932 78.4834 23.4932 79.167 23.4932 79.8994C23.4932 80.9346 23.498 81.8623 23.5078 82.6826C23.5176 83.5029 23.5322 84.1768 23.5518 84.7041C23.9912 85.4561 24.4258 86.1348 24.8555 86.7402C25.2852 87.3359 25.7051 87.8389 26.1152 88.249C26.5352 88.6689 26.9551 88.9912 27.375 89.2158C27.7949 89.4404 28.2197 89.5527 28.6494 89.5527C28.7861 89.5527 28.918 89.5332 29.0449 89.4941C29.1719 89.4551 29.2842 89.4111 29.3818 89.3623C29.4893 89.3135 29.5967 89.25 29.7041 89.1719L30.1729 89.7432C30.0361 89.8408 29.8408 89.958 29.5869 90.0947C29.3428 90.2314 29.04 90.3633 28.6787 90.4902C28.3271 90.6172 27.9219 90.7246 27.4629 90.8125C27.0039 90.9004 26.501 90.9443 25.9541 90.9443C25.1631 90.9443 24.4014 90.749 23.6689 90.3584C22.9463 89.9775 22.248 89.4502 21.5742 88.7764C20.9004 88.1025 20.2559 87.3164 19.6406 86.418C19.0254 85.5098 18.4297 84.5381 17.8535 83.5029C17.2871 82.4678 16.7402 81.3887 16.2129 80.2656C15.6855 79.1426 15.1729 78.0342 14.6748 76.9404C14.1865 75.8369 13.7129 74.7725 13.2539 73.7471C12.8047 72.7119 12.3652 71.7646 11.9355 70.9053C11.9355 71.4717 11.9404 72.0576 11.9502 72.6631C11.96 73.2686 11.9648 73.8789 11.9648 74.4941V79.0352C11.9648 79.8457 11.9453 80.6367 11.9062 81.4082C11.8672 82.1797 11.7744 82.9121 11.6279 83.6055C11.4814 84.2891 11.2666 84.9238 10.9834 85.5098C10.71 86.0859 10.334 86.584 9.85547 87.0039C9.37695 87.4238 8.78613 87.751 8.08301 87.9854C7.37988 88.2197 6.53516 88.3369 5.54883 88.3369C5.05078 88.3369 4.5918 88.2979 4.17188 88.2197C3.75195 88.1514 3.38574 88.0488 3.07324 87.9121C2.77051 87.7754 2.53613 87.6094 2.37012 87.4141C2.19434 87.2188 2.10645 86.9941 2.10645 86.7402C2.10645 86.584 2.13086 86.4229 2.17969 86.2568C2.21875 86.0811 2.28223 85.9248 2.37012 85.7881C2.45801 85.6514 2.56543 85.5391 2.69238 85.4512C2.81934 85.3535 2.9707 85.3047 3.14648 85.3047C3.24414 85.3047 3.33203 85.3535 3.41016 85.4512C3.49805 85.5488 3.58594 85.6709 3.67383 85.8174C3.77148 85.9639 3.87891 86.125 3.99609 86.3008C4.12305 86.4668 4.26953 86.623 4.43555 86.7695C4.61133 86.916 4.82129 87.0381 5.06543 87.1357C5.30957 87.2334 5.60254 87.2822 5.94434 87.2822C6.73535 87.2822 7.38965 87.1455 7.90723 86.8721C8.43457 86.5889 8.85938 86.1934 9.18164 85.6855C9.50391 85.168 9.73828 84.5479 9.88477 83.8252C10.0312 83.1025 10.124 82.292 10.1631 81.3936C10.1924 80.7783 10.2119 80.1826 10.2217 79.6064C10.2314 79.0303 10.2412 78.4443 10.251 77.8486C10.2607 77.2529 10.2656 76.6328 10.2656 75.9883C10.2656 75.3438 10.2656 74.6553 10.2656 73.9229ZM36.1787 80.4121C36.1787 80.168 36.1006 79.9824 35.9443 79.8555C35.7881 79.7285 35.5879 79.665 35.3438 79.665C35.002 79.665 34.6748 79.7432 34.3623 79.8994C34.0596 80.0557 33.791 80.2852 33.5566 80.5879C33.3223 80.8906 33.1367 81.2666 33 81.7158C32.8633 82.1553 32.7949 82.668 32.7949 83.2539C32.7949 83.8203 32.834 84.2891 32.9121 84.6602C33 85.0312 33.1123 85.3291 33.249 85.5537C33.3955 85.7686 33.5615 85.9199 33.7471 86.0078C33.9326 86.0957 34.1279 86.1396 34.333 86.1396C34.5869 86.1396 34.8262 86.0762 35.0508 85.9492C35.2754 85.8125 35.4707 85.6416 35.6367 85.4365C35.8027 85.2314 35.9346 85.002 36.0322 84.748C36.1299 84.4941 36.1787 84.2402 36.1787 83.9863V80.4121ZM33.8496 73.9961C33.5176 73.9961 33.21 74.0352 32.9268 74.1133C32.6436 74.1914 32.3994 74.2891 32.1943 74.4062C31.9893 74.5234 31.8281 74.6553 31.7109 74.8018C31.5938 74.9385 31.5352 75.0703 31.5352 75.1973C31.5352 75.3438 31.6084 75.4512 31.7549 75.5195C31.9111 75.5781 32.082 75.6514 32.2676 75.7393C32.4531 75.8174 32.6191 75.9346 32.7656 76.0908C32.9219 76.2373 33 76.4668 33 76.7793C33 76.9844 32.9561 77.1748 32.8682 77.3506C32.79 77.5166 32.6777 77.668 32.5312 77.8047C32.3945 77.9316 32.2285 78.0342 32.0332 78.1123C31.8477 78.1807 31.6523 78.2148 31.4473 78.2148C30.9004 78.2148 30.4561 78.0293 30.1143 77.6582C29.7822 77.2871 29.6162 76.7939 29.6162 76.1787C29.6162 75.583 29.7725 75.0752 30.085 74.6553C30.3975 74.2256 30.8027 73.874 31.3008 73.6006C31.8086 73.3271 32.3799 73.127 33.0146 73C33.6494 72.8633 34.2842 72.7949 34.9189 72.7949C35.6807 72.7949 36.4082 72.8779 37.1016 73.0439C37.7949 73.21 38.4053 73.4736 38.9326 73.835C39.4697 74.1963 39.8945 74.6553 40.207 75.2119C40.5293 75.7686 40.6904 76.4424 40.6904 77.2334V85.5098C40.6904 85.5977 40.6953 85.6953 40.7051 85.8027C40.7148 85.9102 40.7393 86.0078 40.7783 86.0957C40.8174 86.1836 40.876 86.2568 40.9541 86.3154C41.0322 86.374 41.1445 86.4033 41.291 86.4033C41.4668 86.4033 41.6279 86.3398 41.7744 86.2129C41.9307 86.0762 42.0674 85.9395 42.1846 85.8027L42.5508 86.1104C42.4043 86.3154 42.2285 86.54 42.0234 86.7842C41.8184 87.0283 41.5693 87.2578 41.2764 87.4727C40.9834 87.6875 40.6416 87.8682 40.251 88.0146C39.8604 88.1611 39.416 88.2344 38.918 88.2344C38.3027 88.2344 37.7559 88.0537 37.2773 87.6924C36.7988 87.3213 36.4863 86.7549 36.3398 85.9932C36.0273 86.4131 35.7002 86.7646 35.3584 87.0479C35.0264 87.3311 34.6846 87.5605 34.333 87.7363C33.9814 87.9121 33.625 88.0391 33.2637 88.1172C32.9121 88.1953 32.5557 88.2344 32.1943 88.2344C31.7256 88.2344 31.2715 88.1611 30.832 88.0146C30.3926 87.8682 29.9971 87.6387 29.6455 87.3262C29.3037 87.0039 29.0254 86.5889 28.8105 86.0811C28.6055 85.5732 28.5029 84.9531 28.5029 84.2207C28.5029 83.332 28.6787 82.6045 29.0303 82.0381C29.3818 81.4717 29.8408 80.998 30.4072 80.6172C30.9834 80.2266 31.6328 79.8945 32.3555 79.6211C33.0879 79.3477 33.835 79.0596 34.5967 78.7568C35.1631 78.5322 35.5732 78.2002 35.8271 77.7607C36.0908 77.3115 36.2227 76.8525 36.2227 76.3838C36.2227 75.6611 36.0078 75.085 35.5781 74.6553C35.1582 74.2158 34.582 73.9961 33.8496 73.9961ZM49.2744 74.0547V84.8799C49.2744 85.3975 49.3721 85.7588 49.5674 85.9639C49.7627 86.1592 50.0312 86.2568 50.373 86.2568C50.6367 86.2568 50.8711 86.1836 51.0762 86.0371C51.2812 85.8906 51.457 85.7246 51.6035 85.5391C51.7793 85.334 51.9307 85.0947 52.0576 84.8213L52.5117 85.0264C52.3652 85.3389 52.1895 85.6807 51.9844 86.0518C51.7891 86.4229 51.5254 86.7695 51.1934 87.0918C50.8613 87.4043 50.4414 87.668 49.9336 87.8828C49.4355 88.0977 48.8057 88.2051 48.0439 88.2051C47.6143 88.2051 47.1992 88.1416 46.7988 88.0146C46.4082 87.8877 46.0566 87.6875 45.7441 87.4141C45.4414 87.1406 45.1973 86.7988 45.0117 86.3887C44.8262 85.9785 44.7334 85.4854 44.7334 84.9092V74.0547H43.0928V73C43.3662 73 43.7471 72.9316 44.2354 72.7949C44.7236 72.6484 45.2217 72.4092 45.7295 72.0771C46.2471 71.7451 46.7256 71.3008 47.165 70.7441C47.6045 70.1875 47.917 69.499 48.1025 68.6787H49.2744V73H51.6621C52.4434 73 52.834 72.8682 52.834 72.6045C52.834 72.5068 52.7852 72.4434 52.6875 72.4141C52.5898 72.375 52.4775 72.3311 52.3506 72.2822C52.2334 72.2236 52.126 72.1455 52.0283 72.0479C51.9307 71.9502 51.8818 71.7891 51.8818 71.5645C51.8818 71.291 51.9648 71.0762 52.1309 70.9199C52.3066 70.7637 52.5312 70.6855 52.8047 70.6855C52.9805 70.6855 53.1318 70.7246 53.2588 70.8027C53.3955 70.8711 53.5078 70.9688 53.5957 71.0957C53.6836 71.2129 53.7471 71.3496 53.7861 71.5059C53.835 71.6621 53.8594 71.8184 53.8594 71.9746C53.8594 72.6094 53.6738 73.1172 53.3027 73.498C52.9414 73.8691 52.3555 74.0547 51.5449 74.0547H49.2744ZM59.3379 73.9668C59.1133 73.9668 58.8984 73.9961 58.6934 74.0547C58.498 74.1133 58.3223 74.2109 58.166 74.3477C58.0098 74.4746 57.8877 74.6406 57.7998 74.8457C57.7119 75.041 57.668 75.2754 57.668 75.5488C57.668 75.9297 57.8047 76.3105 58.0781 76.6914C58.3613 77.0625 58.708 77.4531 59.1182 77.8633C59.5381 78.2637 59.9873 78.6836 60.4658 79.123C60.9541 79.5527 61.4033 80.0117 61.8135 80.5C62.2334 80.9785 62.5801 81.4912 62.8535 82.0381C63.1367 82.585 63.2783 83.1709 63.2783 83.7959C63.2783 84.499 63.1562 85.124 62.9121 85.6709C62.6777 86.2178 62.3359 86.6816 61.8867 87.0625C61.4473 87.4434 60.9102 87.7363 60.2754 87.9414C59.6504 88.1367 58.9521 88.2344 58.1807 88.2344C57.5068 88.2344 56.8965 88.1416 56.3496 87.9561C55.8027 87.7607 55.3145 87.5264 54.8848 87.2529C54.4648 86.9697 54.1035 86.6719 53.8008 86.3594C53.498 86.0469 53.2637 85.7637 53.0977 85.5098L53.6104 85.1436C53.7373 85.29 53.8984 85.4512 54.0938 85.627C54.2891 85.793 54.5039 85.9492 54.7383 86.0957C54.9824 86.2422 55.2412 86.3643 55.5146 86.4619C55.7881 86.5498 56.0664 86.5938 56.3496 86.5938C57.0527 86.5938 57.6289 86.4277 58.0781 86.0957C58.5273 85.7539 58.752 85.251 58.752 84.5869C58.752 84.2158 58.6299 83.835 58.3857 83.4443C58.1416 83.0439 57.834 82.6338 57.4629 82.2139C57.0918 81.7939 56.6914 81.3594 56.2617 80.9102C55.832 80.4609 55.4316 79.9971 55.0605 79.5186C54.6895 79.04 54.3818 78.5469 54.1377 78.0391C53.8936 77.5312 53.7715 77.0039 53.7715 76.457C53.7715 75.8418 53.8936 75.3047 54.1377 74.8457C54.3916 74.3867 54.7236 74.0059 55.1338 73.7031C55.5537 73.4004 56.0273 73.1758 56.5547 73.0293C57.0918 72.873 57.6436 72.7949 58.21 72.7949C58.8643 72.7949 59.46 72.8535 59.9971 72.9707C60.5342 73.0879 60.9932 73.2686 61.374 73.5127C61.7646 73.7471 62.0625 74.0449 62.2676 74.4062C62.4824 74.7676 62.5898 75.1875 62.5898 75.666C62.5898 76.0371 62.4678 76.3594 62.2236 76.6328C61.9795 76.9062 61.6377 77.043 61.1982 77.043C60.7783 77.043 60.4561 76.9551 60.2314 76.7793C60.0166 76.5938 59.9092 76.3447 59.9092 76.0322C59.9092 75.8271 59.958 75.666 60.0557 75.5488C60.1631 75.4316 60.2803 75.3389 60.4072 75.2705C60.5342 75.1924 60.6465 75.1289 60.7441 75.0801C60.8516 75.0215 60.9053 74.9482 60.9053 74.8604C60.9053 74.5869 60.7588 74.3721 60.4658 74.2158C60.1729 74.0498 59.7969 73.9668 59.3379 73.9668ZM78.8057 85.4512C78.8057 85.5391 78.8105 85.6367 78.8203 85.7441C78.8301 85.8418 78.8545 85.9395 78.8936 86.0371C78.9326 86.125 78.9912 86.1982 79.0693 86.2568C79.1475 86.3154 79.2598 86.3447 79.4062 86.3447C79.5918 86.3447 79.7578 86.2812 79.9043 86.1543C80.0508 86.0176 80.1875 85.8809 80.3145 85.7441L80.666 86.0518C80.5195 86.2568 80.334 86.4863 80.1094 86.7402C79.8945 86.9844 79.6309 87.2188 79.3184 87.4434C79.0059 87.668 78.6494 87.8535 78.249 88C77.8486 88.1562 77.3945 88.2344 76.8867 88.2344C76.457 88.2344 76.0811 88.1758 75.7588 88.0586C75.4463 87.9512 75.1777 87.8047 74.9531 87.6191C74.7383 87.4238 74.5771 87.1992 74.4697 86.9453C74.3623 86.6816 74.3086 86.4033 74.3086 86.1104V85.4512C73.8203 85.9785 73.3076 86.4424 72.7705 86.8428C72.5361 87.0186 72.2871 87.1895 72.0234 87.3555C71.7598 87.5215 71.4863 87.6729 71.2031 87.8096C70.9199 87.9365 70.627 88.0391 70.3242 88.1172C70.0215 88.1953 69.7188 88.2344 69.416 88.2344C68.8301 88.2344 68.3271 88.1318 67.9072 87.9268C67.4971 87.7119 67.165 87.4336 66.9111 87.0918C66.6572 86.75 66.4717 86.3643 66.3545 85.9346C66.2373 85.5049 66.1787 85.0752 66.1787 84.6455V75.5781C66.1787 75.4902 66.1738 75.3975 66.1641 75.2998C66.1543 75.1924 66.1299 75.0947 66.0908 75.0068C66.0518 74.9092 65.9932 74.8311 65.915 74.7725C65.8369 74.7139 65.7246 74.6846 65.5781 74.6846C65.4023 74.6846 65.2363 74.7529 65.0801 74.8896C64.9336 75.0166 64.8018 75.1484 64.6846 75.2852L64.3184 74.9775C64.4648 74.7725 64.6455 74.5479 64.8604 74.3037C65.085 74.0498 65.3535 73.8105 65.666 73.5859C65.9785 73.3613 66.335 73.1758 66.7354 73.0293C67.1455 72.873 67.5996 72.7949 68.0977 72.7949C68.5273 72.7949 68.9033 72.8535 69.2256 72.9707C69.5479 73.0781 69.8164 73.2295 70.0312 73.4248C70.2461 73.6104 70.4072 73.835 70.5146 74.0986C70.6221 74.3525 70.6758 74.626 70.6758 74.9189V84.7041C70.6758 84.8408 70.6953 84.9824 70.7344 85.1289C70.7832 85.2656 70.8467 85.3926 70.9248 85.5098C71.0127 85.627 71.1201 85.7246 71.2471 85.8027C71.374 85.8711 71.5254 85.9053 71.7012 85.9053C71.9844 85.9053 72.2676 85.832 72.5508 85.6855C72.834 85.5391 73.0928 85.3682 73.3271 85.1729C73.5615 84.9678 73.7617 84.7676 73.9277 84.5723C74.1035 84.377 74.2305 84.2305 74.3086 84.1328V75.5781C74.3086 75.4902 74.3037 75.3975 74.2939 75.2998C74.2842 75.1924 74.2598 75.0947 74.2207 75.0068C74.1816 74.9092 74.123 74.8311 74.0449 74.7725C73.9668 74.7139 73.8545 74.6846 73.708 74.6846C73.5322 74.6846 73.3662 74.7529 73.21 74.8896C73.0635 75.0166 72.9316 75.1484 72.8145 75.2852L72.4482 74.9775C72.5947 74.7725 72.7754 74.5479 72.9902 74.3037C73.2148 74.0498 73.4834 73.8105 73.7959 73.5859C74.1084 73.3613 74.4648 73.1758 74.8652 73.0293C75.2754 72.873 75.7295 72.7949 76.2275 72.7949C76.6572 72.7949 77.0332 72.8535 77.3555 72.9707C77.6777 73.0781 77.9463 73.2295 78.1611 73.4248C78.376 73.6104 78.5371 73.835 78.6445 74.0986C78.752 74.3525 78.8057 74.626 78.8057 74.9189V85.4512ZM87.1992 76.7793C87.541 76.3203 87.9072 75.8564 88.2979 75.3877C88.6885 74.9092 89.1084 74.4795 89.5576 74.0986C90.0068 73.7178 90.4951 73.4053 91.0225 73.1611C91.5498 72.917 92.126 72.7949 92.751 72.7949C93.3076 72.7949 93.7715 72.9072 94.1426 73.1318C94.5137 73.3467 94.8115 73.6104 95.0361 73.9229C95.2705 74.2256 95.4316 74.543 95.5195 74.875C95.6172 75.207 95.666 75.4902 95.666 75.7246C95.666 76.1543 95.6074 76.6035 95.4902 77.0723C95.3828 77.5312 95.1924 77.9902 94.9189 78.4492C94.6553 78.8984 94.2988 79.3379 93.8496 79.7676C93.4004 80.1875 92.834 80.5732 92.1504 80.9248C93.0684 82.8682 93.9619 84.543 94.8311 85.9492C95.7002 87.3457 96.5352 88.4932 97.3359 89.3916C98.1465 90.2998 98.9229 90.9688 99.665 91.3984C100.407 91.8281 101.115 92.043 101.789 92.043C101.906 92.043 102.023 92.0283 102.141 91.999C102.258 91.9697 102.365 91.9355 102.463 91.8965C102.57 91.8574 102.683 91.8086 102.8 91.75L103.078 92.2627C102.814 92.4092 102.546 92.5459 102.272 92.6729C101.999 92.8096 101.687 92.9268 101.335 93.0244C100.983 93.1221 100.578 93.2002 100.119 93.2588C99.6602 93.3174 99.1133 93.3467 98.4785 93.3467C97.9023 93.3467 97.3311 93.2783 96.7646 93.1416C96.208 93.0049 95.6465 92.7607 95.0801 92.4092C94.5137 92.0576 93.9375 91.5889 93.3516 91.0029C92.7754 90.417 92.1797 89.6748 91.5645 88.7764C90.959 87.8779 90.334 86.8086 89.6895 85.5684C89.0449 84.3281 88.376 82.8779 87.6826 81.2178C88.6201 80.5244 89.3574 79.8848 89.8945 79.2988C90.4316 78.7031 90.8369 78.166 91.1104 77.6875C91.3838 77.209 91.5547 76.7842 91.623 76.4131C91.6914 76.042 91.7256 75.7246 91.7256 75.4609C91.7256 75.4219 91.7207 75.3584 91.7109 75.2705C91.7012 75.1729 91.667 75.0801 91.6084 74.9922C91.5596 74.9043 91.4814 74.8262 91.374 74.7578C91.2764 74.6895 91.1348 74.6553 90.9492 74.6553C90.5879 74.6553 90.2217 74.8115 89.8506 75.124C89.4795 75.4268 89.123 75.8076 88.7812 76.2666C88.4492 76.7158 88.1465 77.2041 87.873 77.7314C87.5996 78.249 87.375 78.7227 87.1992 79.1523V86.7109C87.1992 86.8379 87.1748 86.9893 87.126 87.165C87.0869 87.3408 86.9844 87.5068 86.8184 87.6631C86.6621 87.8193 86.4277 87.9512 86.1152 88.0586C85.8125 88.1758 85.4023 88.2344 84.8848 88.2344C84.3672 88.2344 83.9619 88.1709 83.6689 88.0439C83.376 87.9268 83.1562 87.7852 83.0098 87.6191C82.873 87.4531 82.7852 87.2822 82.7461 87.1064C82.7168 86.9307 82.7021 86.7891 82.7021 86.6816V67.7852C82.7021 67.502 82.6338 67.2578 82.4971 67.0527C82.3701 66.8379 82.1504 66.7305 81.8379 66.7305C81.6719 66.7305 81.5254 66.7598 81.3984 66.8184C81.2812 66.8672 81.1543 66.9453 81.0176 67.0527L80.7246 66.7012C80.9492 66.5156 81.1982 66.335 81.4717 66.1592C81.7451 65.9736 82.043 65.8125 82.3652 65.6758C82.6973 65.5391 83.0488 65.4268 83.4199 65.3389C83.791 65.251 84.1816 65.207 84.5918 65.207C85.2266 65.207 85.7197 65.2949 86.0713 65.4707C86.4229 65.6367 86.6816 65.8467 86.8477 66.1006C87.0137 66.3447 87.1113 66.6084 87.1406 66.8916C87.1797 67.165 87.1992 67.4092 87.1992 67.624V76.7793ZM103.283 86.6816C103.283 86.8086 103.259 86.9648 103.21 87.1504C103.171 87.3262 103.068 87.4971 102.902 87.6631C102.746 87.8193 102.517 87.9512 102.214 88.0586C101.911 88.1758 101.501 88.2344 100.983 88.2344C100.466 88.2344 100.061 88.1709 99.7676 88.0439C99.4746 87.9268 99.2549 87.7852 99.1084 87.6191C98.9619 87.4531 98.8691 87.2822 98.8301 87.1064C98.8008 86.9307 98.7861 86.7891 98.7861 86.6816V75.373C98.7861 75.0898 98.7178 74.8457 98.5811 74.6406C98.4541 74.4258 98.2344 74.3184 97.9219 74.3184C97.7559 74.3184 97.6143 74.3477 97.4971 74.4062C97.3799 74.4648 97.2529 74.5479 97.1162 74.6553L96.8086 74.2891C97.0332 74.1035 97.2822 73.9229 97.5557 73.7471C97.8389 73.5615 98.1416 73.4004 98.4639 73.2637C98.7861 73.127 99.1328 73.0146 99.5039 72.9268C99.875 72.8389 100.266 72.7949 100.676 72.7949C101.311 72.7949 101.804 72.8828 102.155 73.0586C102.507 73.2246 102.766 73.4346 102.932 73.6885C103.098 73.9326 103.195 74.1963 103.225 74.4795C103.264 74.7627 103.283 75.0117 103.283 75.2266V86.6816ZM98.332 69.4551C98.332 69.1816 98.3906 68.9229 98.5078 68.6787C98.6348 68.4248 98.8057 68.2051 99.0205 68.0195C99.2451 67.834 99.499 67.6875 99.7822 67.5801C100.075 67.4727 100.393 67.4189 100.734 67.4189C101.066 67.4189 101.374 67.4727 101.657 67.5801C101.95 67.6875 102.204 67.834 102.419 68.0195C102.634 68.2051 102.8 68.4248 102.917 68.6787C103.044 68.9229 103.107 69.1816 103.107 69.4551C103.107 69.7383 103.044 70.002 102.917 70.2461C102.8 70.4902 102.634 70.7051 102.419 70.8906C102.204 71.0664 101.95 71.208 101.657 71.3154C101.374 71.4229 101.066 71.4766 100.734 71.4766C100.393 71.4766 100.075 71.4229 99.7822 71.3154C99.499 71.208 99.2451 71.0664 99.0205 70.8906C98.8057 70.7051 98.6348 70.4902 98.5078 70.2461C98.3906 70.002 98.332 69.7383 98.332 69.4551Z" fill="white"/>
</svg>
